<svg id="Layer_1" enable-background="new 0 0 509.687 509.687" height="512" viewBox="0 0 509.687 509.687" width="512" xmlns="http://www.w3.org/2000/svg"><g><circle cx="241.743" cy="362.097" r="37.376"/><path d="m261.759 423.461-65.258-28.208-14.42-32.415 11.939 15.109c.287-3.274-.063-6.658-1.141-9.981l-3.683-13.32c-8.196-29.638-39.716-46.197-68.771-36.128l-59.515 20.734c-43.229 15.06-49.587 73.56-10.602 97.555l6.392 3.789h-35.796c-.043 0-.085 0-.128 0-11.416 0-20.706 9.147-20.775 20.579-.07 11.475 9.176 21.28 20.651 21.35h110.277.127c9.928 0 18.579-6.825 20.433-16.785 1.595-8.565-2.571-17.187-9.998-21.742l-41.734-25.597 46.88 13.97c12.936 3.854 21.637 15.111 22.87 27.765h11.911c8.891 0 16.727-5.651 19.613-13.949l-28.49-12.315-4.865-2.103c-5.185-2.241-8.618-6.974-9.537-12.148l-7.29-42.887 17.131 38.509c1.744 3.919 4.897 7.04 8.835 8.742l71.793 31.033c2.21.956 4.51 1.407 6.773 1.407 6.876 0 13.412-4.176 16.016-11.103 3.232-8.602-1.204-18.216-9.638-21.861z"/><path d="m365.733 106.932c23.197 0 41.5-19.652 39.82-42.774-1.596-21.972-20.705-38.485-42.668-36.889-21.969 1.596-38.485 20.699-36.889 42.668 1.525 20.985 19.026 36.995 39.737 36.995z"/><path d="m445.448 218.773c-3.986 9.612.575 20.636 10.188 24.623 9.674 4.01 20.662-.636 24.623-10.188l27.989-67.496c3.659-8.824.135-18.991-8.2-23.658-10.609-5.94-45.771-25.627-62.705-35.108-7.366-5.05-16.182-7.714-25.467-7.04l-6.978.449c-11.257 13.22-28.339 19.95-45.84 17.663l-36.826 52.604-64.308 39.372c-8.875 5.434-11.665 17.033-6.231 25.908 5.406 8.831 16.991 11.691 25.908 6.231l67.654-41.421c2.208-1.352 4.113-3.144 5.598-5.264l10.474-14.961 4.082 86.957-20.613 82.32c-.238.952-.413 1.919-.521 2.895l-11.781 105.477c-1.454 13.013 8.728 24.387 21.84 24.387 11.03 0 20.533-8.295 21.786-19.514l11.617-104.012 19.666-78.536 16.717-.579 26.564 183.715c1.735 11.999 12.866 20.315 24.864 18.582 11.997-1.735 20.316-12.867 18.582-24.864l-28.032-193.864-.462-6.362c-4.869.44-9.913-.253-14.743-2.256-15.93-6.606-23.489-24.875-16.883-40.804l20.014-48.265-17.167-15.902 30.164 16.888z"/></g></svg>