<svg id="Layer_1" enable-background="new 0 0 510.366 510.366" height="512" viewBox="0 0 510.366 510.366" width="512" xmlns="http://www.w3.org/2000/svg"><g><path d="m297.128 167.977c4.504-15.384 20.625-24.204 36.009-19.7l9.186 2.689c1.453-14.385-7.681-28.103-22.085-31.969l-1.258-.338c-7.667 8.448-18.299 13.992-30.002 15.177l-69.9 5.061-81.089-16.615c-9.153-1.873-18.093 4.025-19.969 13.177-1.875 9.153 4.024 18.093 13.177 19.969l83.344 17.077c1.509.309 3.045.409 4.552.305l73.786-5.056-50.582 12.278s-18.792 66.064-19.443 68.646l-23.143 91.8c-.156.619-.283 1.245-.38 1.876l-16.991 110.487c-1.704 11.082 5.897 21.447 16.979 23.151 11.083 1.704 21.447-5.898 23.151-16.979l16.848-109.539 18.136-71.94 10.296 2.763-4.338 75.114c-.146 2.525.181 5.055.964 7.459l32.369 99.343c3.463 10.628 14.9 16.497 25.591 13.013 10.66-3.473 16.487-14.931 13.013-25.591l-31.183-95.704 4.188-72.538 19.537-74.169-11.063-3.239c-15.384-4.503-24.204-20.624-19.7-36.008z"/><path d="m270.272 131.936c-10.31-3.213-18.772-9.721-24.536-18.044l-43.249 8.67 21.39 4.383z"/><path d="m275.155 121.041c3.044.817 6.102 1.207 9.111 1.207 15.475 0 29.639-10.324 33.841-25.981 5.02-18.702-6.072-37.932-24.774-42.952-3.044-.817-6.102-1.207-9.111-1.207-15.475 0-29.639 10.324-33.841 25.981-5.02 18.702 6.072 37.932 24.774 42.952z"/><path d="m111.16 177.454c-3.103-8.657-12.583-13.269-21.33-10.316l-49.51 16.701 3.236-13.849 42.41-14.306c9.854-3.324 20.243-1.049 27.723 5.107-7.115-6.801-10.205-17.52-8.083-27.874.818-3.993 2.406-7.632 4.576-10.795-8.054 5.737-17.637 8.684-27.191 8.684-12.408 0-23.935-4.916-32.46-13.102l-12.943 3.278c-11.592 2.935-20.557 12.119-23.207 23.779-4.709 20.722-11.856 52.128-13.923 60.973-3.001 12.84 9.283 24.13 21.88 19.879l77.886-26.273c8.985-3.032 14.135-12.959 10.936-21.886z"/><path d="m171.098 340.481c-2.767-12.614-25.838-97.923-25.838-97.923s-10.006-38.139-11.058-42.149l3.226 4.74c9.335 13.718 30.904 7.1 30.904-9.517v-19.658l-39.677-8.13c-4.576-.938-9.156-2.224-12.618-4.9 2.931 3.01 5.252 6.706 6.684 10.952 5.121 15.179-3.034 31.635-18.212 36.755l-55.417 18.694 13.269 50.374 4.286 74.212-31.183 95.705c-3.473 10.66 2.353 22.118 13.013 25.591 10.706 3.49 22.133-2.401 25.591-13.013l32.369-99.344c.784-2.405 1.111-4.935.965-7.459l-4.412-76.4 10.061-2.7 18.001 71.405-2.665 107.713c-.282 11.388 8.865 20.803 20.304 20.803 10.978-.001 20.012-8.762 20.285-19.798l2.734-110.487c.043-1.842-.162-3.681-.612-5.466z"/><path d="m140.533 109.867 27.798 5.696v-13.421c0-9.343-7.574-16.917-16.917-16.917s-16.917 7.574-16.917 16.917v7.119c1.989-.005 4.009.191 6.036.606z"/><path d="m116.875 74.809c-4.202-15.658-18.366-25.981-33.841-25.981-23.121 0-39.847 21.947-33.885 44.159 4.203 15.658 18.367 25.981 33.841 25.981 23.12.001 39.846-21.947 33.885-44.159z"/><path d="m509.729 450.854-22.102-86.516c7.722-77.259 7.596-73.073 7.48-76.129l-8.325-128.471c-.924-13.827-12.883-24.287-26.71-23.362l-21.248 1.421c-29.417 5.032-57.554-17.814-58.394-47.582l-15.505-44.685c-3.069-8.843-12.725-13.521-21.568-10.456-8.843 3.068-13.524 12.725-10.456 21.568l22.587 65.096c1.279 3.687 3.792 6.82 7.114 8.869l33.223 20.494c-2.614 4.174-4.024 9.151-3.786 14.422l2.353.689 38.373-6.692-42.685 18.012-60.336-17.663c-8.978-2.629-18.397 2.521-21.027 11.504s2.521 18.397 11.504 21.027l66.127 19.359c3.678 1.077 7.692.893 11.35-.651l48.245-20.358-43.551 31.483c-1.972 1.426-4.149 2.359-6.386 2.833l5.667 69.394-18.394 54.7c-.513 1.527-.844 3.109-.983 4.714l-8.751 100.252c-.977 11.189 7.302 21.053 18.492 22.029 11.236.98 21.056-7.348 22.029-18.492l8.54-97.837 22.968-68.301 8.593-.575-7.373 72.885c-.24 2.373-.061 4.77.53 7.081l22.994 90.009c2.776 10.869 13.843 17.456 24.739 14.671 10.883-2.783 17.452-13.859 14.672-24.742z"/><path d="m392.319 91.336c1.312 19.625 17.64 34.668 37.025 34.668.833 0 1.672-.028 2.515-.084 20.469-1.369 35.952-19.071 34.584-39.54-1.312-19.625-17.64-34.668-37.025-34.668-.833 0-1.672.028-2.515.084-20.469 1.368-35.953 19.071-34.584 39.54z"/></g></svg>